<svg xmlns="http://www.w3.org/2000/svg" version="1.1" xmlns:xlink="http://www.w3.org/1999/xlink" xmlns:svgjs="http://svgjs.com/svgjs" width="219.000000pt" height="230.000000pt"><svg version="1.0" xmlns="http://www.w3.org/2000/svg" width="219.000000pt" height="230.000000pt" viewBox="0 0 219.000000 230.000000" preserveAspectRatio="xMidYMid meet">
<metadata>
Created by potrace 1.16, written by Peter Selinger 2001-2019
</metadata>
<g transform="translate(0.000000,230.000000) scale(0.100000,-0.100000)" fill="#000000" stroke="none">
<path d="M757 2183 c-4 -3 -7 -95 -7 -203 l0 -197 -77 -7 c-90 -7 -126 -26
-168 -85 l-30 -43 0 -237 0 -238 33 -63 c28 -55 32 -72 32 -140 l0 -78 -177
-102 c-192 -110 -254 -160 -286 -230 -19 -40 -21 -69 -25 -247 l-4 -203 731 0
731 0 0 65 c0 36 1 65 3 65 1 0 137 3 302 6 173 4 305 11 313 17 9 7 12 170
12 753 0 741 0 743 -21 754 -50 27 -49 43 -49 -731 l0 -719 -279 0 -279 0 -4
107 c-6 167 -34 204 -241 324 -78 45 -155 90 -172 100 -29 18 -21 19 403 19
l432 0 0 35 0 35 -456 0 -457 0 7 61 c3 33 8 65 12 70 3 5 192 9 450 9 l444 0
0 35 0 35 -424 0 -425 0 6 58 c2 31 6 63 9 70 3 9 95 12 419 12 l416 0 -3 33
-3 32 -417 3 -418 2 0 70 0 70 420 0 420 0 0 35 0 35 -420 0 -420 0 0 70 0 70
105 0 105 0 0 35 0 35 -124 0 c-103 0 -126 3 -137 17 -21 25 -90 53 -131 53
-31 0 -38 -4 -38 -19 0 -20 -25 -51 -41 -51 -5 0 -9 74 -9 175 l0 175 444 0
c435 0 445 0 451 20 3 11 3 24 0 30 -7 11 -947 15 -958 3z m203 -418 c48 -25
59 -59 62 -196 l3 -123 -85 2 c-182 5 -209 11 -256 54 l-43 40 -51 -54 -51
-53 3 102 c3 100 4 103 35 135 32 31 33 32 150 36 123 5 164 16 183 52 13 24
13 24 50 5z m-227 -369 c12 -3 73 -7 134 -9 85 -3 119 -9 139 -22 26 -17 27
-18 20 -99 -8 -93 -32 -153 -79 -192 -107 -90 -238 -86 -333 10 -60 59 -74 98
-74 201 0 68 1 71 34 93 18 12 43 34 56 47 l23 24 29 -24 c16 -14 39 -27 51
-29z m-60 -436 c71 -25 146 -25 217 0 30 11 58 19 63 20 4 0 7 -28 7 -61 0
-52 -5 -70 -34 -118 -19 -31 -60 -80 -90 -110 l-55 -55 -43 49 c-24 26 -62 75
-85 108 -40 56 -43 66 -43 124 0 35 1 63 3 63 1 0 28 -9 60 -20z m-167 -187
c-23 -81 -36 -150 -32 -169 4 -13 20 -31 36 -39 29 -15 33 -14 110 21 l81 37
24 -23 25 -23 0 -204 0 -203 -175 0 -175 0 0 105 0 105 -35 0 -35 0 0 -105 0
-105 -106 0 -106 0 4 168 c5 237 5 238 231 369 78 45 146 82 150 82 5 1 6 -7
3 -16z m144 -89 c0 -6 -102 -56 -106 -52 -2 2 1 20 6 39 5 19 14 54 20 78 l11
43 35 -52 c19 -28 34 -54 34 -56z m574 14 c67 -39 136 -85 155 -102 55 -51 61
-77 61 -261 l0 -166 -102 3 -103 3 0 103 0 102 -32 0 -32 0 -3 -102 -3 -103
-172 -3 -173 -2 0 207 1 208 25 18 c24 18 26 18 109 -18 92 -39 109 -38 141
10 14 22 14 30 -5 97 -12 41 -21 78 -21 82 0 13 25 0 154 -76z m-207 2 c12
-38 17 -70 12 -70 -6 0 -86 35 -107 47 -5 2 62 92 69 93 3 0 15 -31 26 -70z"></path>
<path d="M897 444 c-12 -12 -8 -41 8 -54 20 -17 47 5 43 34 -3 21 -37 34 -51
20z"></path>
<path d="M894 296 c-10 -26 4 -48 28 -44 17 2 23 10 23 28 0 18 -6 26 -23 28
-13 2 -25 -3 -28 -12z"></path>
<path d="M1796 2174 c-12 -31 -7 -299 6 -312 8 -8 59 -12 165 -12 144 0 153 1
163 21 11 19 -3 35 -136 170 -147 148 -183 172 -198 133z m144 -179 l74 -75
-77 0 -77 0 0 75 c0 41 1 75 3 75 1 0 36 -34 77 -75z"></path>
<path d="M1410 1845 l0 -175 170 0 170 0 0 175 0 175 -170 0 -170 0 0 -175z
m280 0 l0 -105 -105 0 -105 0 0 105 0 105 105 0 105 0 0 -105z"></path>
<path d="M960 1955 l0 -35 170 0 170 0 0 35 0 35 -170 0 -170 0 0 -35z"></path>
<path d="M1650 695 l0 -35 140 0 140 0 0 35 0 35 -140 0 -140 0 0 -35z"></path>
</g>
</svg><style>@media (prefers-color-scheme: light) { :root { filter: none; } }
</style></svg>